**ABCDEFGHIJKLMNOPQRSTUVWXYZabcdefghijklmnopqrstuvwxyz**************************
**PARASOLID !"#$%&'()*+,-./:;<=>?@[\]^_`{|}~0123456789**************************
**PART1;
MC=iZiwfnjdvqmqclZ;
MC_MODEL=unknown;
MC_ID=unknown;
OS=Windows NT;
OS_RELEASE=6.2;
FRU=Unigraphics Solutions;
SITE=Huntsville, AL;
USER=Administrator
FORMAT=text;
GUISE=transmit;
KEY=D:\ModelConvertServices\Newdim.Nex3DConvertService\output\672b0204-9702-4f5d-b15f-5c27018510c8\GB_T882B-1986;
FILE=D:\ModelConvertServices\Newdim.Nex3DConvertService\output\672b0204-9702-4f5d-b15f-5c27018510c8\GB_T882B-1986.x_t;
DATE=ÖÜÈý, 9ÔÂ 20 23;
**PART2;
SCH=SCH_3300247_32001;
USFLD_SIZE=0;
**PART3;
**END_OF_HEADER*****************************************************************
T51 : TRANSMIT FILE created by modeller version 330024723 SCH_3300247_32001_1300
6229 0 12 34 CCCCCCI4 mesh1006 0 I8 polyline1008 0 CCCCCCCDI5 owner1040 0 CCCCCC
I13 boundary_mesh1006 0 I17 boundary_polyline1008 0 CCCA16 index_map_offset0 0 1
 dA9 index_map82 0 A17 node_id_index_map82 0 A20 schema_embedding_map82 0 A5 chi
ld12 0 A14 lowest_node_id0 0 1 dA16 mesh_offset_data206 0 Z1 482 2 3 0 0 0 0 0 0
 1e3 1e-8 0 4 0 1 0 1 1 5 6 7 0 0 0 8 9 0 0 0 0 0 0 0 0 81 255 3 2 449 10 1 11 0
 11 0 12 13 14 70 11 CI9 list_type0 0 1 uI10 notransmit0 0 1 lCCCDCCDI12 finger_
index0 0 1 dI12 finger_block1012 0 CZ3 0 4 T1 0 0 9 20 1 15 15 13 255 5 29 0 1 0
 16 0 0 17 0 54 255 6 416 0 18 19 0 0 +0 -.0015 0 0 1 0 .0065 .0015 0 0 1 31 255
 7 423 0 9 20 0 0 +0 0 0 0 1 0 0 0 1 .0065 19 8 CCCCCCCA5 owner12 0 Z8 1 0 1 17
 0 21 V0 16 255 9 420 0 ?22 0 23 7 0 0 1 17 255 22 0 24 22 22 0 25 9 0 0 +16 23
 396 0 ?26 9 27 20 0 0 1 17 26 0 28 26 26 0 29 23 0 0 +16 27 321 0 2e-5 30 23 31
 0 0 0 1 31 20 399 0 23 32 7 0 -0 -.003 0 0 1 0 0 0 1 .0065 137 255 32 367 0 1 3
3 20 34 +19 35 0 ?133 255 33 368 0 36 37 32 0 +32 -.00547656856425464 .065000328
5014014 -.00245095833522684 -.00547656856425464 .0650003285014014 -.002450958335
22684 0 1 141 255 34 33 34 34 32 124 255 19 365 38 39 40 6 41 +42 43 134 255 35
 0 0 0 0 0 0 +44 45 136 255 44 1 2 2 2 5 FFF1 46 47 48 135 255 45 2 0 45 255 4 4
6 1 .999997561378206 1 1.999997561378205 127 255 2 47 2 2 128 255 2 48 0 1 81 2
 38 366 49 19 0 0 50 0 51 52 14 255 39 358 53 ?18 54 55 5 19 +0 0 18 54 21 124 4
0 347 50 54 56 19 57 +58 59 141 41 37 60 60 19 126 255 42 FT1 3 2 18 5 2 2 11 FF
T9 3 61 62 63 64 65 125 255 43 0 1 .999997561378206 1.999997561378205 0 1 .99999
7561378206 1.999997561378205 2 BBPPBBPP????0 0 0 0 45 108 61 -.00511563814350526
 .0655977025056069 -.002089914259009835 -.00511558227222904 .0644028972698073 -.
002090085697960185 -.00521134260043152 .0638363576882177 -.001818341687980385 -.
00539982199252223 .0631005543996402 -.00102593193501872 -.0054775032025757 .0629
099910470105 -.000512717664944151 -.00547749679719636 .0629100089536267 .0005127
9065280242 -.00540004498003417 .0630999066527804 .00102476536047193 -.0052115490
9854212 .0638353292767145 .0018177020873875 -.00511565981645447 .064398920896937
9 .002089847756982355 -.00511556062899098 .0656000199142461 .00209015210882135 -
.00521140032176082 .0661637908412509 .00181802022697075 -.0053996160325436 .0668
987183027394 .00102687656254124 -.00547749725760702 .0670899923334098 .000512774
989147521 -.00547750274222586 .067090007666123 -.000512712491318751 -.0053998040
648327 .0668992740139996 -.001025902935450384 -.00521155668873411 .0661645795821
759 -.001817545875624295 -.00511563814350526 .0655977025056069 -.002089914259009
835 -.00511558227222904 .0644028972698073 -.002090085697960185 -.005476603266254
56 .0656547321294424 -.00245088079499321 -.00547653386225471 .0643459248733604 -
.00245103587546047 -.00559371302324201 .0637040753451126 -.00221637056753999 -.0
0586144341254972 .0627297287756036 -.001358456845292608 -.00600000584683508 .062
387484538775 -.000702032369879346 -.00599999415274877 .0623875154623255 .0007021
32307613158 -.0058617873055535 .0627287494212479 .00135709684784802 -.0055939792
6580478 .0637028348632023 .00221577486305206 -.00547663018866471 .06434156908681
52 .002450820637939635 -.00547650697675213 .0656572706621848 .002451095950045555
 -.00559380435682341 .0662961632307084 .002215989171962325 -.00586114151695619 .
0672692662800277 .00135951289471024 -.00599999499326024 .0676124867604127 .00070
2110860395351 -.00600000500643464 .0676125132387804 -.000702025286006356 -.00586
14303171262 .0672700994541889 -.001358381257630226 -.00559400477289036 .06629711
03973285 -.00221555311479707 -.00547660326625456 .0656547321294424 -.00245088079
499321 -.00547653386225471 .0643459248733604 -.00245103587546047 127 2 62 2 2 12
7 11 63 2 2 2 2 2 2 2 2 2 2 2 128 2 64 0 1 128 11 65 .874997561378206 .999997561
378206 1.124997561378206 1.249997561378206 1.374997561378206 1.499997561378206 1
.624997561378205 1.749997561378205 1.874997561378205 1.999997561378205 2.1249975
61378205 137 37 369 0 1 66 33 67 +19 68 0 ?141 60 32 41 41 19 133 66 370 0 69 70
 37 0 +37 -.00511561020786715 .0650002998877071 -.00208999997848501 -.0051156102
0786715 .0650002998877071 -.00208999997848501 0 1 141 67 66 67 67 37 134 68 0 0
 0 0 0 0 +71 72 136 71 1 2 2 2 5 FFF1 73 74 75 135 72 2 0 45 4 73 0 1.9999975613
78205 0 .999997561378206 127 2 74 2 2 128 2 75 0 1 17 69 0 76 69 69 0 77 31 66 0
 -137 70 349 0 1 78 66 79 +40 80 0 ?133 78 350 0 81 82 70 0 +70 .005115610207867
15 .0649997001122929 .00208999997848501 .00511561020786715 .0649997001122929 .00
208999997848501 0 1 141 79 78 79 79 70 134 80 0 0 0 0 0 0 +83 84 136 83 1 2 2 2
 5 FFF1 85 86 87 135 84 2 0 45 4 85 1 .999997561378204 1 1.999997561378205 127 2
 86 2 2 128 2 87 0 1 17 81 0 88 81 81 0 30 27 78 0 -137 82 351 0 1 89 78 90 +40
 91 0 ?133 89 352 0 92 93 82 0 +82 .00547656856425464 .0649996714985986 .0024509
5833522684 .00547656856425464 .0649996714985986 .00245095833522684 0 1 141 90 89
 90 90 82 134 91 0 0 0 0 0 0 +94 95 136 94 1 2 2 2 5 FFF1 96 97 98 135 95 2 0 45
 4 96 0 1.999997561378205 0 .999997561378204 127 2 97 2 2 128 2 98 0 1 17 92 0 9
9 92 92 0 100 101 89 0 -137 93 325 0 1 102 89 103 +104 105 0 ?133 102 324 0 30 1
06 93 0 +93 .00511561020786715 .0649997001122929 .00208999997848501 .00511561020
786715 .0649997001122929 .00208999997848501 0 1 141 103 102 103 103 93 51 255 10
4 174 0 107 0 108 109 +.076426435217142 .065 0 -1 0 0 .00209 0 0 1 134 105 0 0 0
 0 0 0 +110 111 136 110 2 51 2 26 5 FFF1 112 113 114 135 111 1 0 45 102 112 6.28
304182023791 .0713108250092748 6.03075673281742 .0713107926860452 5.860584152376
38 .0712527830526532 5.75893139842601 .0712181309425738 5.65727864221258 .071190
9155308123 5.54583530227569 .0711610788938392 5.4604938783139 .0711207548403586
 5.37648161448037 .071081058818631 5.21169781437415 .0710327750643476 5.08433669
45665 .0709954566324989 5.02882330350995 .070983516854049 4.86806759578115 .0709
489416371815 4.71237402875098 .0709489352172256 4.58177920470006 .07094892983220
53 4.41722803361758 .070979279938663 4.414541209755 .0709797755011662 4.23811239
359641 .0710258804961935 4.07443623792405 .0710686529213996 3.963811378349695 .0
711209270399898 3.865509072860655 .0711673783204217 3.767206759238355 .071191014
8451153 3.69335469985163 .0712087723724923 3.56426689856903 .0712527639472693 3.
393791430355285 .0713108599426544 3.14133925913345 .0713108249944193 2.889549824
76869 .0713107901379302 2.719708460648225 .0712529703234396 2.617784701576205 .0
712182719867167 2.51586094025326 .0711909749238724 2.404089414916225 .0711610404
482238 2.31858096875115 .0711206381778538 2.23457530166213 .0710809459623294 2.0
69827307229425 .0710326901208294 1.94261941263457 .0709954300375109 1.8871938796
1774 .0709835112903726 1.726458584064315 .0709489466549125 1.570813788005 .07094
8935217256 1.349191539181646 .0709489189312045 1.201412576523536 .07099769439582
54 1.011917382509782 .0710602385899731 .822422187868892 .0711208529206651 .69059
3306870607 .0711630213746079 .558764429297054 .0712148010569328 .490650868941818
 .0712415546679938 .4225373042606875 .0712527997406975 .370709223366675 .0712613
561940336 .318881145689172 .0712815211130981 .30085997739889 .071288532667767 .2
133842542676605 .0712992879964771 .1194263056999542 .0713108403287767 -.00014348
69416803152 .0713108250092748 127 26 113 3 2 2 2 2 2 2 2 2 2 2 2 2 2 2 2 2 2 2 2
 2 2 2 2 2 3 128 26 114 0 .0625 .09375 .125 .165816326530612 .1964285714285715 .
25 .3 .33 .375 .40625 .4375 .5 .5625 .59375 .625 .665816326530612 .6964285714285
71 .75 .8125 .875 .916666666666667 .9375 .953125 .96875 1 14 107 154 115 ?116 11
7 118 5 104 -0 0 116 117 21 50 255 108 80 0 119 104 120 0 +0 -.003 0 0 1 0 0 0 1
 141 109 93 121 121 104 141 121 106 109 109 104 137 106 315 0 1 122 102 123 +104
 124 0 ?133 122 314 0 77 125 106 0 +106 -.00511561020786715 .0650002998877071 -.
00208999997848501 -.00511561020786715 .0650002998877071 -.00208999997848501 0 1
 141 123 122 123 123 106 134 124 0 0 0 0 0 0 +126 127 136 126 2 19 2 10 5 FFF1 1
28 129 130 135 127 1 0 45 38 128 3.141449166648125 .0815420454250091 3.442425893
22322 .081542016009886 3.964014841458695 .0817320175136189 4.435844413220895 .08
19038929500976 4.7124064415948 .081903935217028 4.98867598537457 .08190397743925
81 5.46017362234095 .0817322322564301 5.98201273781532 .0815421499585197 6.28293
191272326 .0815420454398647 6.28305860995142 .0815420453958588 6.28318530717959
 .0815420454374126 6.5843772634007 .0815421442215206 7.10568783742557 .081732046
7777405 7.5775298179075 .0819039289583255 7.85414636885344 .0819039352051738 8.1
303857245186 .0819039414435038 8.60218115498506 .0817320811247213 9.123791400018
56 .0815420748270701 9.42463447382771 .0815420454250091 127 10 129 3 2 2 2 2 2 2
 2 2 3 128 10 130 0 .125 .25 .375 .5 .50006103515625 .625045776367188 .750030517
578125 .875015258789063 1 17 77 0 131 77 77 0 69 31 122 0 +137 125 305 0 1 132 1
22 133 +134 135 0 ?133 132 304 0 100 136 125 0 +125 .00547656856425464 .06499967
14985986 .00245095833522684 .00547656856425464 .0649996714985986 .00245095833522
684 0 1 141 133 132 133 133 125 51 134 187 0 16 137 56 138 -0 .07 0 0 -1 0 .006
 0 0 -1 134 135 0 0 0 0 0 0 +139 140 136 139 2 73 2 39 5 TTF1 141 142 143 135 14
0 1 0 45 146 141 1.991598805229295 .00500032850140145 1.9915878863287 .004435307
507796165 1.960619622113075 .0040442983109763 1.95094531152658 .0039221492494120
6 1.94127115624125 .00378826410234853 1.93659746937704 .00372358277000595 1.9165
0611924568 .003551396644602885 1.884500615047395 .00327710428876595 1.8732907354
28495 .00321690206035813 1.871886196059825 .00320935903556616 1.84361640521602 .
003040912267223085 1.825716581763405 .00293425539695604 1.81145155543615 .002882
232410553325 1.79384351077536 .00281801780295626 1.77623551703897 .0027410966008
1709 1.75878001988963 .00266484158592071 1.73897077204166 .002619344740594845 1.
670573764483745 .0024622540677184 1.657582282976575 .002447743550847205 1.603696
37445774 .0023875570059754 1.57078799865042 .002387500000550255 1.53816874531756
5 .00238744349595656 1.484008591062462 .002447746042172725 1.471264975763052 .00
24619349317932 1.402662090047476 .00261922994433661 1.386716439992326 .002655790
66914105 1.365461047938692 .002740708839981815 1.347883254069264 .00281093450785
195 1.330305461547614 .00288149672480907 1.2993888182783 .003005604850858945 1.2
68472640390798 .00321579214222506 1.216430114002262 .003569609412175435 1.194298
321256216 .00386582237435429 1.16679666609236 .004233905829426515 1.159975665941
016 .004413682745560715 1.150022580656558 .00467601010793562 1.149993855889708 .
00499941987449994 1.149943700785956 .00556411202609083 1.180993204014888 .005956
0033816453 1.19066436549957 .00607806796206947 1.200335371504968 .00621188525609
422 1.20500565554917 .00627650777548601 1.225080612061874 .00644855440761762 1.2
5706264271037 .00672264718875622 1.268243022410364 .00678271475536804 1.26963030
4648478 .00679016805037978 1.297883910314728 .00695861015239514 1.31577786948354
4 .00706529020347878 1.330057212375106 .00711739184565398 1.34769154474959 .0071
8173497981296 1.36532582621523 .00725877732710067 1.38281346837028 .007335179022
44494 1.40264333737043 .00738071652024303 1.471034258947044 .00753777007620352 1
.484025635210354 .00755227781702821 1.53789659623215 .00761243664274771 1.570789
1955958 .00761249999959657 1.603418376073715 .00761256284905498 1.65758458181094
 .00755225323083358 1.670342071047675 .00753804881509392 1.7389618312408 .007380
68078834681 1.754924754154045 .00734407247504312 1.776213406118385 .007258984975
31001 1.793814112383405 .00718863763287914 1.811414817213105 .0071179320902245 1
.842314029772645 .00699380378895693 1.87321277669016 .00678360492575873 1.925108
03587293 .00643057039931935 1.94718234815023 .00613552366212841 1.97472424993614
5 .00576739675715907 1.981577189717975 .00558665872003344 1.9916050250636 .00532
218663437567 1.991598805229295 .00500032850140145 127 39 142 1 2 2 2 2 2 2 2 2 2
 2 2 2 2 2 2 2 2 2 2 2 2 2 2 2 2 2 2 2 2 2 2 2 2 2 2 2 2 1 128 39 143 -.0375 0 .
0625 .0803571428571429 .0982142857142857 .125 .140625 .15625 .171875 .1875 .2187
5 .25 .28125 .3125 .328125 .34375 .375 .425 .4625 .5 .5625 .580357142857143 .598
214285714286 .625 .640625 .65625 .671875 .6875 .71875 .75 .78125 .8125 .828125 .
84375 .875 .925 .9625 1 1.0625 14 16 183 144 ?145 0 146 5 134 -0 0 145 0 21 52 2
55 137 118 147 117 148 134 0 +0 .07 0 0 -1 0 .00525 .5 .866025403784439 0 0 -1 5
4 56 272 0 116 134 40 0 +0 .000450000000000006 0 0 1 0 .00645 45e-5 0 0 1 141 13
8 136 149 149 134 137 136 295 0 1 150 132 151 +134 152 0 ?141 149 125 138 138 13
4 133 150 294 0 153 154 136 0 +136 -.00547656856425464 .0650003285014014 -.00245
095833522684 -.00547656856425464 .0650003285014014 -.00245095833522684 0 1 141 1
51 150 151 151 136 134 152 0 0 0 0 0 0 +155 156 136 155 2 29 2 17 5 TTF1 157 158
 159 135 156 1 0 45 58 157 5.13319145881909 .00499967149859859 5.13315207697435
 .00451192790515909 5.10199922598857 .004045067374065875 5.07116052033073 .00358
291466424772 5.01480543027995 .00321639507424129 4.95689892754892 .0028397854792
5069 4.87924009645966 .002619507124467095 4.79748169636265 .00238760039073832 4.
71238184918561 .00238750000040344 4.62743933408059 .002387399795669595 4.5454409
9118344 .002619940765464265 4.4678259761061 .00284005095597566 4.40983567600016
 .00321728524463194 4.29160738819355 .0039863753160456 4.2915865094795 .00500058
012550003 4.29156564732496 .00601398054000552 4.41006529398059 .0067842078577749
4 4.46805055252133 .0071611020630867 4.54562364332431 .00738098915081309 4.62725
477879237 .00761237908848436 4.71238065224021 .00761249999944976 4.7973502118824
 .00761262068839038 4.87925456139429 .00738049474949448 4.95681950126276 .007160
66717501676 5.01488338901828 .00678309793964191 5.07119208772369 .00641694208723
552 5.10207371275955 .00595409609785269 5.13323081694193 .00548712129666098 5.13
319145881909 .00499967149859859 127 17 158 1 2 2 2 2 2 2 2 2 2 2 2 2 2 2 2 1 128
 17 159 -.0625 0 .0625 .125 .1875 .25 .3125 .375 .5 .625 .6875 .75 .8125 .875 .9
375 1 1.0625 17 153 0 160 153 153 0 36 161 150 0 +31 154 254 0 162 163 150 0 -0
 0 0 0 1 0 0 0 1 .00645 16 162 251 0 ?164 161 165 154 0 0 1 31 163 247 0 165 166
 154 0 +0 .000450000000000006 0 0 1 0 0 0 1 .006 16 165 244 0 ?167 162 168 163 0
 0 1 31 166 101 0 168 169 163 0 -0 .0687009618943233 0 0 1 0 0 0 1 .006 16 168 9
8 0 ?170 165 171 166 0 0 1 31 169 94 0 171 0 166 0 +0 .07 0 0 1 0 0 0 1 .00525 1
6 171 91 0 ?172 168 0 169 0 0 1 17 172 0 173 172 172 0 174 171 0 0 +15 255 173 9
2 0 172 145 0 17 174 0 175 174 174 0 172 171 0 0 -15 175 113 0 174 117 0 14 117
 111 176 ?107 177 178 5 137 +0 0 107 177 21 81 2 176 467 179 117 180 0 181 115 1
82 183 14 177 70 181 ?117 119 24 5 120 +0 0 117 119 21 15 178 112 0 184 117 175
 13 21 3 0 0 0 0 0 0 8 16 17 184 0 178 184 184 0 170 168 0 0 -17 170 0 185 170 1
70 0 184 168 0 0 +15 185 99 0 170 16 0 81 2 181 464 179 177 186 0 187 176 188 18
9 14 119 65 187 ?177 145 28 5 108 -0 0 177 145 21 15 24 421 0 22 177 190 50 120
 79 0 177 108 148 0 +0 0 0 0 1 0 0 0 1 50 148 11 0 145 120 137 0 +0 .07 0 0 1 0
 0 0 1 14 145 8 191 ?119 16 173 5 148 +0 0 119 16 21 81 2 191 458 179 145 192 0
 144 187 193 194 80 255 2 179 195 196 8014 0 0 0 0 3 5 0 0 0 FFFFTFFFFFFFFF2 1 8
1 1 192 457 197 145 198 191 199 200 201 81 2 144 455 179 16 199 0 0 191 202 203
 81 2 187 461 179 119 200 0 191 181 204 205 83 255 1 193 0 82 255 1 194 0 81 1 2
00 460 197 119 206 187 192 186 207 83 1 204 0 82 1 205 0 80 1 197 179 208 8015 0
 0 0 0 3 5 0 0 0 FFFFTFFFFFFFFF2 81 1 206 459 209 119 210 200 198 211 212 81 1 1
86 463 197 177 211 181 200 180 213 83 1 207 0 81 1 211 462 209 177 214 186 206 2
15 216 81 1 180 466 197 117 215 176 186 217 218 83 1 213 0 81 1 215 465 209 117
 219 180 211 220 221 81 1 217 469 197 107 220 115 180 222 223 83 1 218 0 81 1 22
0 468 209 107 224 217 215 225 226 81 2 115 470 179 107 217 0 176 227 228 229 81
 1 222 472 197 116 225 227 217 230 231 83 1 223 0 14 116 265 227 ?54 107 232 5 5
6 -0 0 54 107 21 81 1 225 471 209 116 233 222 220 234 235 81 2 227 473 179 116 2
22 0 115 236 237 238 81 1 230 475 197 54 234 236 222 239 240 83 1 231 0 14 54 34
0 236 ?39 116 88 5 40 +0 0 39 116 21 81 1 234 474 209 54 241 230 225 242 243 81
 2 236 476 179 54 230 0 227 53 244 245 81 1 239 478 197 39 242 53 230 246 247 83
 1 240 0 81 1 242 477 209 39 248 239 234 249 250 81 2 53 479 179 39 239 0 236 25
1 252 253 81 1 246 481 197 18 249 251 239 0 254 83 1 247 0 14 18 409 251 ?0 39 2
55 5 6 +0 0 0 39 21 81 1 249 480 209 18 256 246 242 0 257 81 2 251 482 179 18 24
6 0 53 0 258 259 83 1 254 0 83 1 258 0 82 1 259 0 80 1 209 0 260 8001 0 0 0 0 3
 5 0 0 0 FFFFTFTFFFFFFF2 81 1 256 452 261 18 262 249 214 0 0 83 3 257 .505882382
392883 .529411792755127 .549019634723663 80 1 261 263 264 9000 1 1 1 1 1 1 1 1 0
 FFFFTFTTFFFFFF1 81 3 262 443 265 18 266 256 267 0 268 269 0 81 1 214 451 261 17
7 270 211 210 256 0 81 1 270 71 271 177 272 214 273 274 275 81 1 210 450 261 119
 273 206 248 214 0 81 1 273 66 271 119 276 210 277 270 278 81 1 248 385 261 39 2
79 242 241 210 0 81 1 279 376 271 39 280 248 281 266 282 81 1 241 384 261 54 281
 234 224 248 0 81 1 281 372 271 54 283 241 284 279 285 81 1 224 383 261 107 286
 220 287 241 0 81 1 286 155 271 107 288 224 274 289 290 81 1 287 382 261 16 291
 292 233 224 0 81 3 291 185 265 16 289 287 288 293 294 295 0 81 1 292 453 209 16
 287 199 0 198 296 81 1 233 281 261 116 284 225 219 287 0 81 1 284 274 271 116 2
93 233 289 281 297 81 1 219 126 261 117 274 215 298 233 0 81 1 274 121 271 117 2
99 219 270 286 300 81 1 298 125 261 145 277 198 0 219 0 81 1 277 34 271 145 301
 298 0 273 302 81 1 198 456 209 145 298 192 292 206 303 83 3 303 .50588238239288
3 .529411792755127 .549019634723663 80 1 271 304 305 9000 0 0 0 0 3 6 0 0 0 FFFF
TFFFFFFFFF1 81 3 301 31 265 145 0 277 0 276 306 307 0 82 1 302 378 80 3 265 308
 309 9000 0 0 0 0 3 6 0 0 0 FFFFTFTTFFFFFF1 1 3 81 3 276 68 265 119 0 273 301 27
2 310 311 0 82 1 306 0 82 1 307 0 81 3 272 73 265 177 0 270 276 299 312 313 0 82
 1 310 0 82 1 311 3 81 3 299 120 265 117 0 274 272 288 314 315 0 82 1 312 0 82 1
 313 4 81 3 288 158 265 107 0 286 299 291 316 317 0 82 1 314 1 82 1 315 0 82 1 3
16 2 82 1 317 2 79 255 27 309 MONIKER/MONIKER_DATA_ATTRIB79 23 305 SolidEdge/MNK
R_ATTR_CID82 1 300 405 81 3 293 273 265 116 0 284 291 283 318 319 0 81 1 289 184
 271 16 0 291 286 284 320 82 1 297 508 82 1 320 378 81 3 283 371 265 54 0 281 29
3 280 321 322 0 82 1 318 3 82 1 319 0 81 3 280 373 265 39 0 279 283 267 323 324
 0 82 1 321 4 82 1 322 0 81 3 267 417 265 18 0 266 280 262 325 326 0 82 1 323 4
 82 1 324 1 81 1 266 418 271 18 267 262 279 0 327 82 1 325 5 82 1 326 0 82 1 327
 667 81 1 199 454 197 16 292 144 0 192 328 83 3 296 .505882382392883 .5294117927
55127 .549019634723663 83 1 328 0 82 1 294 0 82 1 295 2 82 1 290 511 82 1 285 70
2 82 1 282 702 82 1 278 436 82 1 275 436 82 1 268 5 82 1 269 1 79 17 264 SolidEd
ge/Display79 15 260 SDL/TYSA_COLOUR15 255 410 0 29 18 329 17 29 0 255 29 29 0 26
 23 0 0 -15 329 435 0 25 18 0 17 25 0 329 25 25 0 22 9 0 0 -83 1 252 0 82 1 253
 0 83 3 250 .505882382392883 .529411792755127 .549019634723663 83 1 244 0 82 1 2
45 0 83 3 243 .505882382392883 .529411792755127 .549019634723663 15 88 341 0 81
 54 99 15 99 342 0 92 54 0 83 1 237 0 82 1 238 0 83 3 235 .505882382392883 .5294
11792755127 .549019634723663 15 232 266 0 330 116 331 17 330 0 232 330 330 0 164
 162 0 0 -15 331 267 0 332 116 0 17 332 0 331 332 332 0 167 165 0 0 -17 167 0 33
3 167 167 0 332 165 0 0 +15 333 245 0 167 16 185 17 164 0 190 164 164 0 330 162
 0 0 +15 190 252 0 164 177 0 83 1 228 0 82 1 229 0 83 3 226 .505882382392883 .52
9411792755127 .549019634723663 83 3 221 .505882382392883 .529411792755127 .54901
9634723663 83 3 216 .505882382392883 .529411792755127 .549019634723663 83 3 212
 .505882382392883 .529411792755127 .549019634723663 79 21 208 SDL/TYSA_TRANSLUCE
NCY83 1 202 0 82 1 203 0 83 1 201 0 79 21 196 SDL/TYSA_REFLECTIVITY15 28 397 0 2
6 119 0 83 1 188 0 82 1 189 0 83 1 182 0 82 1 183 0 16 161 291 0 2e-5 153 101 16
2 0 0 0 1 16 101 301 0 2e-5 100 31 161 0 0 0 1 17 100 0 146 100 100 0 92 101 132
 0 +16 31 311 0 2e-5 77 27 101 0 0 0 1 15 146 302 0 100 16 160 15 160 292 0 153
 16 333 17 36 0 55 36 36 0 153 161 33 0 -15 55 359 0 36 39 76 15 76 360 0 69 39
 0 81 2 147 119 49 137 0 0 0 50 334 335 80 2 49 336 337 8044 0 0 0 0 3 5 0 0 0 F
FFFTFFFTTFFFF3 2 81 2 50 348 49 40 0 0 147 38 338 339 84 255 6 334 BAMAAB83 4 33
5 0 .001299038105676664 75e-5 .5 84 6 338 HANAAB83 2 339 5225e-7 .70710678118654
8 79 17 337 SDL/TYSA_BLEND_ID15 131 312 0 77 107 0 15 118 322 0 30 107 131 17 30
 0 118 30 30 0 81 27 102 0 +141 57 82 340 340 40 126 58 FT1 3 2 58 5 2 2 31 FFT9
 3 341 342 343 344 345 125 59 0 1 .999997561378204 1.999997561378205 0 1 .999997
561378204 1.999997561378205 2 BBPPBBPP????0 0 0 0 45 348 341 .00547658591525272
 .0646724696857517 .00245091138603908 .00547655121325655 .0653268733114455 .0024
510052844146 .00550371112477199 .0656618713753445 .002412261625345205 .005572930
47602362 .0661026168458633 .002214093948172845 .00560058531945609 .0662615903503
433 .0021659917950413 .00566118579096945 .066521842071161 .00197798111225245 .00
569411192291434 .0666732337640947 .00190572989982857 .00576104451287737 .0668929
621151891 .001669097513004085 .00579498829316436 .0670309833291865 .001569411016
58788 .00585919590825103 .0672045518497069 .001290657269219302 .0058894613887623
 .0673197162651637 .001161699288933032 .00594124232414198 .0674415942536467 .000
846894661439426 .00596270519752936 .0675204795921559 .000690633993223692 .005992
13234623043 .0675840333061497 .000349490663878223 .00600000146153841 .0676125030
642516 .000175470615833944 .00599999853804545 .067612496934648 -.000175570553567
693 .00599212871574821 .0675840250119403 -.0003495361143822845 .0059627069770380
3 .0675204829037143 -.000690609816958153 .00594124320550712 .0674416125292639 -.
000846860946052768 .00588954126038219 .0673199275820629 -.001161257307853692 .00
585937107152731 .0672050910677008 -.001289871846598306 .00579528306299561 .06703
1915482681 -.00156828087931537 .00576135928701974 .0668940282617376 -.0016680268
90546465 .00569440728433854 .0666743874538123 -.00190484482035361 .0056613811624
9042 .0665226714702163 -.001977389850167245 .00560049694559697 .0662612501641792
 -.00216629226584769 .005572683551745 .06610122995487 -.002214719313731295 .0055
0354740871112 .0656603282230049 -.002412611179826095 .00547659938568344 .0653295
055156651 -.002450874946120395 .0054765377797334 .064671654735335 -.002451041641
8648 .00550375792060036 .0643377259988532 -.002412152646640245 .0055729760710301
7 .0638971319281055 -.002213980504765315 .00560061110819465 .0637382988918498 -.
00216591179099285 .00566116002074832 .0634782686019737 -.001978061065977435 .005
69405579554631 .0633270141442461 -.001905873335581875 .00576089007823327 .063107
5563450179 -.00166962873109073 .00579482816602729 .0629695187822691 -.0015700294
84732555 .00585911607532933 .0627956975264229 -.00129101641132555 .0058894637515
108 .0626802657232743 -.001161708239618912 .0059412830547052 .0625583012362397 -
.000846631872814745 .00596272389479519 .0624794754677605 -.000690447642852597 .0
0599212952465568 .0624159688981831 -.0003494945283491805 .00599999874822379 .062
3875026246696 -.000175559805504583 .00600000125147109 .0623874973761373 .0001754
742311154265 .0059921317875847 .0624159684861197 .0003495014853493905 .005962703
3650692 .0624795250522131 .000690650653941116 .00594124041446032 .06255840663891
08 .000846899963751712 .00588948125640962 .0626802317843956 .001161588210574542
 .00585922829350938 .0627953459076349 .001290511140393436 .00579506097386778 .06
29687899119161 .00156912898946517 .0057611457343871 .0631066905035452 .001668759
0643952 .00569428935562948 .0633260996449373 .001905175308032065 .00566135130570
982 .063477470915462 .001977504628385925 .00560068596705728 .0637378798697833 .0
02165744877352865 .00557298128001805 .063897077915937 .002213956468988365 .00550
36738498259 .064338317092589 .002412379995765065 .00547658591525272 .06467246968
57517 .00245091138603908 .00547655121325655 .0653268733114455 .0024510052844146
 .00511562851894933 .0647009988033448 .00208995906310281 .00511559189678497 .065
298401421241 .00209004089386721 .00512705213021763 .0655951306408181 .0020195707
10777585 .00519692714955786 .0659880226965341 .001849495751933845 .0052062967525
7709 .0661110199309027 .001773308768896205 .0052645439776559 .066336767850903 .0
0161501455912942 .00527532362026799 .0664395685434633 .00151909753980447 .005335
84097268573 .0666235193686788 .001325176083194674 .00534612103164968 .0667045125
370946 .001215101799192432 .00540030406955081 .0668438487467328 .000994317174075
067 .0054083493501417 .0669022158292558 .000874681938898898 .00544913229249153 .
0669958432291459 .000634468675590052 .00545398001835507 .0670311044197325 .00050
8924557815762 .0054759314481747 .0670781945443282 .000256622321199163 .005477501
06745871 .0670900022379871 .0001281520457872762 .00547749893231335 .067089997761
3757 -.000128225033645497 .00547592891846408 .0670781887772772 -.000256655954726
7655 .0054539815055935 .0670311072248033 -.000508906823421056 .00544912485383377
 .0669958410581079 -.000634438111486852 .00540840549456638 .0669023640074361 -.0
0087433531980337 .00540040259082455 .0668441933159446 -.000993644450734055 .0053
463298281741 .0667051875044279 -.001214136288372852 .00533605842375521 .06662430
98649626 -.001324206070929126 .00527553565482108 .0664404542055426 -.00151826137
6930285 .00526471930975943 .0663374722756675 -.00161449627012638 .00520620127677
982 .0661107140510566 -.001773539105964175 .00519673163538813 .0659868334213292
 -.001850131264355445 .00512693141033101 .0655937737854088 -.00201997773034731 .
00511564273012065 .0653008043487353 -.00208992729641732 .00511557771532479 .0647
002548400809 -.00209007256938638 .00512709002052948 .0644045144037689 -.00201945
4729703045 .00519696189454426 .0640117632412185 -.001849377666315165 .0052063215
3806188 .0638888839972801 -.001773241406156035 .00526451920599156 .0636633281519
334 -.001615081872036555 .00527529185317245 .0635606113621933 -.0015192533606708
65 .00533572450113197 .0633768794938165 -.00132564342884116 .00534600628638715 .
063295853141307 -.001215627650227358 .00540026186738457 .0631563063771247 -.0009
9462751996121 .0054083476030909 .0630977778874627 -.000874683768916918 .00544916
003131146 .0630040851368998 -.000634265573893575 .00545399259510581 .06296886529
58588 -.000508785486652913 .00547592781259921 .0629218103355702 -.00025662501358
1335 .00547749908579701 .0629100019167876 -.000128217183970649 .0054775009140358
6 .0629099980836797 .0001281546861417658 .00547593126201739 .0629218062946667 .0
00256630349467838 .00545397885783631 .0629688985675889 .000508937068144849 .0054
4912897974802 .0630041610614649 .000634471645797456 .00540836349431749 .06309774
74098379 .000874595096894326 .00540032037892355 .0631560889125316 .0009941901044
04139 .00534617343646049 .0632953218142209 .001214862672193182 .0053359018324805
1 .0633762363963435 .001324856391749806 .0052754589210863 .063559910007481 .0015
1859241932484 .00526467209472317 .0636626735578398 .00161456243845194 .005206367
2779362 .0638885474105932 .001773044571600635 .00519697317453975 .06401170981643
22 .001849368099878505 .00512701014438681 .064405039205191 .002019661832246715 .
00511562851894933 .0647009988033448 .00208995906310281 .00511559189678497 .06529
8401421241 .00209004089386721 127 2 342 2 2 127 31 343 2 2 2 2 2 2 2 2 2 2 2 2 2
 2 2 2 2 2 2 2 2 2 2 2 2 2 2 2 2 2 2 128 2 344 0 1 128 31 345 .937497561378204 .
999997561378204 1.062497561378204 1.093747561378204 1.124997561378204 1.15624756
1378204 1.187497561378204 1.218747561378204 1.249997561378204 1.281247561378204
 1.312497561378204 1.343747561378204 1.374997561378204 1.406247561378204 1.43749
7561378204 1.499997561378204 1.562497561378205 1.593747561378205 1.6249975613782
05 1.656247561378205 1.687497561378205 1.718747561378205 1.749997561378205 1.781
247561378205 1.812497561378205 1.843747561378205 1.874997561378205 1.90624756137
8205 1.937497561378205 1.999997561378205 2.062497561378205 141 340 70 57 57 40 8
4 6 51 HAMAAB83 2 52 5225e-7 .707106781186548 19 17 30 0 1 0 8 5 S0 74 4 CI16 in
dex_map_offset0 0 1 dCCZ20 15 9 0 0 262 266 256 346 38 2 249 246 251 0 0 0 0 0 0
 0 0 0 0 0 81 2 346 46 347 1 0 348 0 0 349 350 80 2 347 10 351 9000 2 2 2 2 3 6
 0 0 0 FFTFFFFFFFFFFF2 3 81 3 348 444 10 1 346 352 0 352 353 354 355 83 2 349 1
 89 84 21 350 SE 221.0.0.114 Type8680 3 10 356 357 9000 0 0 0 0 3 6 0 0 0 FFTFFF
FFFFFFFF3 3 1 81 3 352 445 10 1 348 358 348 358 359 360 361 84 38 353 {2fb75a08-
5976-483c-9b17-80da25269f81}84 2 354 SE82 1 355 0 81 3 358 446 10 1 352 362 352
 362 363 364 365 84 38 359 {f7eff0d7-a39b-450f-88b0-c346aaabf45b}84 2 360 SE82 1
 361 1 81 3 362 447 10 1 358 11 358 11 366 367 368 84 38 363 {109e11d6-893d-4f4d
-9711-79d1454b735b}84 2 364 SE82 1 365 2 81 3 11 448 10 1 362 2 362 2 369 370 37
1 84 38 366 {f8558729-609c-4bdd-b333-1d26ca865f1d}84 2 367 SE82 1 368 3 84 38 36
9 {aff19255-613e-4b89-afb6-37bc83bd151d}84 2 370 SE82 1 371 4 79 25 357 MONIKER/
GUID_TABLE_ATTRIB79 22 351 MONIKER/BODY_ID_ATTRIB84 38 12 {080c0228-ef0a-44f0-9b
9e-03fcbf30975c}84 2 13 SE82 1 14 5 1 0 
